<?xml version="1.0" encoding="utf-8"?>
<!-- Generator: Adobe Illustrator 20.1.0, SVG Export Plug-In . SVG Version: 6.00 Build 0)  -->
<svg version="1.1" id="Layer_1" xmlns="http://www.w3.org/2000/svg" xmlns:xlink="http://www.w3.org/1999/xlink" x="0px" y="0px"
	 viewBox="0 0 101 104" style="enable-background:new 0 0 101 104;" xml:space="preserve">
<style type="text/css">
	.st0{display:none;}
	.st1{fill:none;}
	.st2{display:inline;fill:#010202;}
	.st3{fill:none;stroke:#FFFFFF;stroke-width:2;stroke-miterlimit:10;}
	.st4{fill:#FFFFFF;}
</style>
<g id="XMLID_1_" class="st0">
	<path id="XMLID_23_" class="st1" d="M148.1,74.1c0,1,0.8,1.8,1.8,1.8h24.9V61.1L156,42.2h-7.8V74.1z"/>
	<path id="XMLID_22_" class="st1" d="M149,40.3h5.1l-2.9-2.9C150.3,38.5,149.5,39.5,149,40.3z"/>
	<path id="XMLID_21_" class="st1" d="M171.5,95.8c10.6,0,20.3-3.9,27.8-10.2l-8-8c-0.4,0.2-0.9,0.3-1.3,0.3h-40.1
		c-2,0-3.7-1.7-3.7-3.7V41.7c0-1,1.8-3.5,3.6-5.7l-11.1-11.1c-6.4,7.5-10.2,17.2-10.2,27.8C128.4,76.5,147.7,95.8,171.5,95.8z"/>
	<polygon id="XMLID_20_" class="st1" points="174.8,42.2 158.7,42.2 174.8,58.4 	"/>
	<path id="XMLID_19_" class="st1" d="M191.8,74.1v-32h-15.1v18.1l14.8,14.8C191.7,74.8,191.8,74.5,191.8,74.1z"/>
	<path id="XMLID_18_" class="st1" d="M174.8,40.2h0.4l5.8-10.4h-22.7c-0.9,0.4-3.5,3.2-5.9,6.1l4.4,4.4L174.8,40.2L174.8,40.2
		L174.8,40.2z"/>
	<rect id="XMLID_17_" x="159.2" y="24" class="st1" width="22.5" height="4"/>
	<path id="XMLID_16_" class="st1" d="M151.4,34.1c3.3-3.9,5-5.3,5.9-5.9v-6.2h26.3v6.4c0.9,0.7,2.5,2.2,5.3,5.7
		c1.8,2.3,4.8,6.3,4.8,7.6v32.4c0,0.9-0.3,1.7-0.8,2.3l7.9,7.9c8.5-7.9,13.8-19.1,13.8-31.6c0-23.8-19.3-43.1-43.1-43.1
		c-12.5,0-23.7,5.3-31.6,13.8L151,34.6C151.1,34.4,151.3,34.3,151.4,34.1z"/>
	<polygon id="XMLID_15_" class="st1" points="176.7,63 176.7,75.9 189.7,75.9 	"/>
	<path id="XMLID_14_" class="st1" d="M191,40.2c-1.8-2.8-6.2-8.2-8.1-9.9l-5.5,9.9H191z"/>
	<path id="XMLID_2_" class="st2" d="M137.3,23.6c-6.7,7.9-10.8,18.1-10.8,29.2c0,24.8,20.2,45,45,45s45-20.2,45-45s-20.2-45-45-45
		c-13,0-24.7,5.5-32.9,14.4 M171.5,9.7c23.8,0,43.1,19.3,43.1,43.1c0,12.5-5.3,23.7-13.8,31.6l-7.9-7.9c0.5-0.6,0.8-1.4,0.8-2.3
		V41.7c0-1.3-3-5.3-4.8-7.6c-2.8-3.5-4.4-5-5.3-5.7v-6.4h-26.3v6.2c-0.9,0.5-2.6,2-5.9,5.9c-0.1,0.1-0.3,0.3-0.4,0.5l-11.1-11.1
		C147.8,15,159,9.7,171.5,9.7z M156,42.2l18.9,18.9v14.8h-24.9c-1,0-1.8-0.8-1.8-1.8V42.2H156z M149,40.3c0.5-0.8,1.3-1.8,2.2-2.9
		l2.9,2.9H149z M158.7,42.2h16.1v16.1L158.7,42.2z M156.7,40.3l-4.4-4.4c2.4-2.9,5.1-5.7,5.9-6.1H181l-5.8,10.4h-0.4v0.1L156.7,40.3
		L156.7,40.3z M181.6,27.9h-22.5v-4h22.5V27.9z M182.9,30.3c1.9,1.7,6.3,7.1,8.1,9.9h-13.6L182.9,30.3z M176.7,63l12.9,12.9h-12.9
		V63z M176.7,60.3V42.2h15.1v32c0,0.3-0.1,0.7-0.3,0.9L176.7,60.3z M138.6,24.9l11.1,11.1c-1.7,2.2-3.6,4.7-3.6,5.7v32.4
		c0,2,1.7,3.7,3.7,3.7H190c0.5,0,0.9-0.1,1.3-0.3l8,8c-7.5,6.4-17.2,10.2-27.8,10.2c-23.8,0-43.1-19.3-43.1-43.1
		C128.4,42.2,132.3,32.4,138.6,24.9z"/>
</g>
<circle id="XMLID_29_" class="st3" cx="50.5" cy="52" r="47"/>
<g id="XMLID_59_">
	<path id="XMLID_75_" class="st4" d="M59.6,21.1H31.1c-2.1,0-3.8,1.8-3.8,3.8v2.6c0,2.1,1.8,3.8,3.8,3.8h0.1v1.8
		c-2.1,0.1-3.7,1.8-3.7,3.8v4.2v27.7v3.3c0,4.1,3.4,7.5,7.5,7.5h20.7c4.1,0,7.5-3.4,7.5-7.5V37c0-1.8-1.2-3.3-2.9-3.7v-2
		c1.8-0.3,3.2-1.9,3.2-3.8v-2.6C63.5,22.8,61.7,21.1,59.6,21.1z M58,32.6H33.6v-1.2H58L58,32.6L58,32.6z M29.8,42.3h16.3
		c0.9,0,1.6,0.7,1.6,1.6v22.3c0,0.9-0.7,1.6-1.6,1.6H29.8V42.3z M60.9,37v35.1c0,2.9-2.3,5.2-5.2,5.2H35c-2.9,0-5.2-2.3-5.2-5.2
		v-2.2h16.3c2.1,0,3.8-1.8,3.8-3.8V43.9c0-2.1-1.8-3.8-3.8-3.8H29.8v-3c0-0.9,0.7-1.6,1.6-1.6h28C60.2,35.4,60.9,36.2,60.9,37z
		 M61.2,27.5c0,0.9-0.7,1.6-1.6,1.6h-0.5H32.4h-1.2c-0.9,0-1.6-0.7-1.6-1.6v-2.6c0-0.9,0.7-1.6,1.6-1.6h28.6c0.9,0,1.6,0.7,1.6,1.6
		L61.2,27.5L61.2,27.5z"/>
	<path id="XMLID_74_" class="st4" d="M57.4,40c-0.7,0-1.1,0.5-1.1,1.1v23.5c0,0.7,0.5,1.1,1.1,1.1c0.7,0,1.1-0.5,1.1-1.1V41.1
		C58.5,40.6,57.9,40,57.4,40z"/>
	<path id="XMLID_72_" class="st4" d="M57.4,67.2c-0.7,0-1.1,0.5-1.1,1.1v1.4c0,0.7,0.5,1.1,1.1,1.1c0.7,0,1.1-0.5,1.1-1.1v-1.4
		C58.5,67.7,57.9,67.2,57.4,67.2z"/>
	<path id="XMLID_66_" class="st4" d="M73.2,70.8H68c-2.3,0-4.2,1.8-4.2,4s1.9,4,4.2,4h5.2c2.3,0,4.2-1.8,4.2-4S75.6,70.8,73.2,70.8z
		 M66.1,74.8c0-1,0.9-1.8,2-1.8h1.5v3.5H68C67,76.6,66.1,75.8,66.1,74.8z M73.2,76.6h-1.5v-3.5h1.5c1.1,0,2,0.8,2,1.8
		S74.3,76.6,73.2,76.6z"/>
	<path id="XMLID_60_" class="st4" d="M68.2,48.5L68.2,48.5L68.2,48.5l1.2,2.3c0.8,1.4,2.3,2.2,3.7,2.2c0.7,0,1.3-0.1,1.9-0.5
		c1-0.5,1.6-1.5,1.9-2.5c0.2-1.1,0.1-2.2-0.4-3.1l-1.2-2.3l0,0l0,0L74,42.3c-1.2-2.1-3.7-2.8-5.6-1.7s-2.6,3.7-1.4,5.6L68.2,48.5z
		 M74.7,49.4c-0.1,0.4-0.4,0.9-0.8,1.1c-0.9,0.5-2,0.1-2.5-0.9l-0.7-1.2l3.1-1.8l0.7,1.2l0,0C74.8,48.4,74.9,48.9,74.7,49.4z
		 M69.4,42.5c0.2-0.1,0.5-0.2,0.8-0.2c0.7,0,1.3,0.4,1.7,1l0.7,1.2l-3.1,1.8l-0.7-1.2C68.3,44.2,68.6,43,69.4,42.5z"/>
</g>
</svg>
