<?xml version="1.0" encoding="utf-8"?>
<!-- Generator: Adobe Illustrator 20.1.0, SVG Export Plug-In . SVG Version: 6.00 Build 0)  -->
<svg version="1.1" id="Layer_1" xmlns="http://www.w3.org/2000/svg" xmlns:xlink="http://www.w3.org/1999/xlink" x="0px" y="0px"
	 viewBox="0 0 75 75" style="enable-background:new 0 0 75 75;" xml:space="preserve">
<style type="text/css">
	.st0{fill:#FFFFFF;}
</style>
<path class="st0" d="M52.5,35.3c3,0,3,4.5,0,4.5S49.5,35.3,52.5,35.3"/>
<path class="st0" d="M45,27.8c3,0,3,4.5,0,4.5S42,27.8,45,27.8"/>
<path class="st0" d="M45,35.3c3,0,3,4.5,0,4.5S42,35.3,45,35.3"/>
<path class="st0" d="M45,42.8c3,0,3,4.5,0,4.5S42,42.8,45,42.8"/>
<path class="st0" d="M37.5,20.3c3,0,3,4.5,0,4.5S34.5,20.3,37.5,20.3"/>
<path class="st0" d="M37.5,27.8c3,0,3,4.5,0,4.5S34.5,27.8,37.5,27.8"/>
<path class="st0" d="M37.5,35.3c3,0,3,4.5,0,4.5S34.5,35.3,37.5,35.3"/>
<path class="st0" d="M37.5,42.8c3,0,3,4.5,0,4.5S34.5,42.8,37.5,42.8"/>
<path class="st0" d="M37.5,50.3c3,0,3,4.5,0,4.5S34.5,50.3,37.5,50.3"/>
<path class="st0" d="M30,12.8c3,0,3,4.5,0,4.5S27,12.8,30,12.8"/>
<path class="st0" d="M30,20.3c3,0,3,4.5,0,4.5S27,20.3,30,20.3"/>
<path class="st0" d="M30,27.8c3,0,3,4.5,0,4.5S27,27.8,30,27.8"/>
<path class="st0" d="M30,42.8c3,0,3,4.5,0,4.5S27,42.8,30,42.8"/>
<path class="st0" d="M30,50.3c3,0,3,4.5,0,4.5S27,50.3,30,50.3"/>
<path class="st0" d="M30,57.8c3,0,3,4.5,0,4.5S27,57.8,30,57.8"/>
<path class="st0" d="M22.5,20.3c3,0,3,4.5,0,4.5S19.5,20.3,22.5,20.3"/>
<path class="st0" d="M22.5,50.3c3,0,3,4.5,0,4.5S19.5,50.3,22.5,50.3"/>
</svg>
