<?xml version="1.0" encoding="utf-8"?>
<!-- Generator: Adobe Illustrator 20.1.0, SVG Export Plug-In . SVG Version: 6.00 Build 0)  -->
<svg version="1.1" id="Layer_1" xmlns="http://www.w3.org/2000/svg" xmlns:xlink="http://www.w3.org/1999/xlink" x="0px" y="0px"
	 viewBox="0 0 101 104" style="enable-background:new 0 0 101 104;" xml:space="preserve">
<style type="text/css">
	.st0{display:none;}
	.st1{fill:none;}
	.st2{display:inline;fill:#010202;}
	.st3{fill:none;stroke:#FFFFFF;stroke-width:2;stroke-miterlimit:10;}
	.st4{fill:#FFFFFF;stroke:#FFFFFF;stroke-miterlimit:10;}
	.st5{fill:#FFFFFF;}
</style>
<g id="XMLID_1_" class="st0">
	<path id="XMLID_23_" class="st1" d="M148.1,74.1c0,1,0.8,1.8,1.8,1.8h24.9V61.1L156,42.2h-7.8V74.1z"/>
	<path id="XMLID_22_" class="st1" d="M149,40.3h5.1l-2.9-2.9C150.3,38.5,149.5,39.5,149,40.3z"/>
	<path id="XMLID_21_" class="st1" d="M171.5,95.8c10.6,0,20.3-3.9,27.8-10.2l-8-8c-0.4,0.2-0.9,0.3-1.3,0.3h-40.1
		c-2,0-3.7-1.7-3.7-3.7V41.7c0-1,1.8-3.5,3.6-5.7l-11.1-11.1c-6.4,7.5-10.2,17.2-10.2,27.8C128.4,76.5,147.7,95.8,171.5,95.8z"/>
	<polygon id="XMLID_20_" class="st1" points="174.8,42.2 158.7,42.2 174.8,58.4 	"/>
	<path id="XMLID_19_" class="st1" d="M191.8,74.1v-32h-15.1v18.1l14.8,14.8C191.7,74.8,191.8,74.5,191.8,74.1z"/>
	<path id="XMLID_18_" class="st1" d="M174.8,40.2h0.4l5.8-10.4h-22.7c-0.9,0.4-3.5,3.2-5.9,6.1l4.4,4.4L174.8,40.2L174.8,40.2
		L174.8,40.2z"/>
	<rect id="XMLID_17_" x="159.2" y="24" class="st1" width="22.5" height="4"/>
	<path id="XMLID_16_" class="st1" d="M151.4,34.1c3.3-3.9,5-5.3,5.9-5.9v-6.2h26.3v6.4c0.9,0.7,2.5,2.2,5.3,5.7
		c1.8,2.3,4.8,6.3,4.8,7.6v32.4c0,0.9-0.3,1.7-0.8,2.3l7.9,7.9c8.5-7.9,13.8-19.1,13.8-31.6c0-23.8-19.3-43.1-43.1-43.1
		c-12.5,0-23.7,5.3-31.6,13.8L151,34.6C151.1,34.4,151.3,34.3,151.4,34.1z"/>
	<polygon id="XMLID_15_" class="st1" points="176.7,63 176.7,75.9 189.7,75.9 	"/>
	<path id="XMLID_14_" class="st1" d="M191,40.2c-1.8-2.8-6.2-8.2-8.1-9.9l-5.5,9.9H191z"/>
	<path id="XMLID_2_" class="st2" d="M137.3,23.6c-6.7,7.9-10.8,18.1-10.8,29.2c0,24.8,20.2,45,45,45s45-20.2,45-45s-20.2-45-45-45
		c-13,0-24.7,5.5-32.9,14.4 M171.5,9.7c23.8,0,43.1,19.3,43.1,43.1c0,12.5-5.3,23.7-13.8,31.6l-7.9-7.9c0.5-0.6,0.8-1.4,0.8-2.3
		V41.7c0-1.3-3-5.3-4.8-7.6c-2.8-3.5-4.4-5-5.3-5.7v-6.4h-26.3v6.2c-0.9,0.5-2.6,2-5.9,5.9c-0.1,0.1-0.3,0.3-0.4,0.5l-11.1-11.1
		C147.8,15,159,9.7,171.5,9.7z M156,42.2l18.9,18.9v14.8h-24.9c-1,0-1.8-0.8-1.8-1.8V42.2H156z M149,40.3c0.5-0.8,1.3-1.8,2.2-2.9
		l2.9,2.9H149z M158.7,42.2h16.1v16.1L158.7,42.2z M156.7,40.3l-4.4-4.4c2.4-2.9,5.1-5.7,5.9-6.1H181l-5.8,10.4h-0.4v0.1L156.7,40.3
		L156.7,40.3z M181.6,27.9h-22.5v-4h22.5V27.9z M182.9,30.3c1.9,1.7,6.3,7.1,8.1,9.9h-13.6L182.9,30.3z M176.7,63l12.9,12.9h-12.9
		V63z M176.7,60.3V42.2h15.1v32c0,0.3-0.1,0.7-0.3,0.9L176.7,60.3z M138.6,24.9l11.1,11.1c-1.7,2.2-3.6,4.7-3.6,5.7v32.4
		c0,2,1.7,3.7,3.7,3.7H190c0.5,0,0.9-0.1,1.3-0.3l8,8c-7.5,6.4-17.2,10.2-27.8,10.2c-23.8,0-43.1-19.3-43.1-43.1
		C128.4,42.2,132.3,32.4,138.6,24.9z"/>
</g>
<circle id="XMLID_117_" class="st3" cx="50.9" cy="52.4" r="46.4"/>
<g id="XMLID_105_">
	<path id="XMLID_106_" class="st4" d="M52.7,86.6L52.7,86.6c-0.1,0-0.2,0-0.2,0c-0.1,0-0.1,0-0.2,0c0,0,0,0,0,0
		c-0.3,0-0.5-0.1-0.7-0.3L21.4,56.1c-6.5-6.5-6.5-17,0-23.4c3.1-3.1,7.3-4.8,11.7-4.8s8.6,1.7,11.7,4.8l7.7,7.7l7.7-7.7
		c3.1-3.1,7.3-4.8,11.7-4.8c4.4,0,8.6,1.7,11.7,4.8c3.1,3.1,4.8,7.3,4.8,11.7c0,4.4-1.7,8.6-4.8,11.7L53.4,86.3
		C53.2,86.4,53,86.6,52.7,86.6z M33.1,29.9c-3.9,0-7.5,1.5-10.2,4.2c-5.6,5.6-5.6,14.8,0,20.5l29.6,29.6c0,0,0,0,0,0l29.6-29.6
		c2.7-2.7,4.2-6.4,4.2-10.2s-1.5-7.5-4.2-10.2c-2.7-2.7-6.4-4.2-10.2-4.2s-7.5,1.5-10.2,4.2l-8.4,8.4c-0.4,0.4-1.1,0.4-1.5,0
		l-8.4-8.4C40.6,31.4,36.9,29.9,33.1,29.9z"/>
	<g id="XMLID_115_">
		<path id="XMLID_126_" class="st4" d="M45,70.8c-0.4-0.6-0.6-1.2-0.5-1.9c0-0.1,0-0.2,0-0.3c-0.2-0.2-0.5-0.4-0.7-0.6l-5.9-6
			L50,50.1l2.8,2.9c0.3-0.5,0.7-0.9,1.2-1.2l-10-10.1c-3.9-4-10.4-4.1-14.4-0.1c-1.9,1.9-3,4.5-3,7.2c0,0,0,0,0,0
			c0,2.7,1,5.3,2.9,7.2l13,13.2c0.8,0.8,1.7,1.5,2.7,1.9C45.1,71,45,70.9,45,70.8z M30.7,54.7c-1.6-1.6-2.5-3.8-2.4-6v0
			c0-2.3,0.9-4.4,2.5-6c3.3-3.3,8.7-3.2,12,0.1l5.9,6L36.6,60.8L30.7,54.7z"/>
		<g id="XMLID_110_">
			<path class="st5" d="M42.4,43.9c1.6,1.1,3,2.5,4.2,4.1c0.1,0.2,0.3,0.4,0.3,0.6c0,0.3-0.2,0.5-0.3,0.7c-1.7,2.1-3.5,4.3-5.8,5.9
				c-1.6,1.1-3.5,2.1-4.4,3.8c-1.3-1.2-2.6-2.4-3.5-4c-0.5-0.8-0.8-1.8-1.5-2.5c-0.3-0.3-0.6-0.6-0.9-0.9c-1.8-1.8-1.4-5,0.3-6.9
				c1.7-1.9,4.4-2.6,6.9-2.6c1.7,0,3.6,0.4,4.9,1.6c-3.8,0.4-8,1.8-9.7,5.2c-0.2,0.5-0.4,1.1,0,1.4c0.5,0.4,1.2-0.3,1.4-0.9
				c0.4-1.3,0.2-2.8-0.6-3.9c-0.1-0.1-0.2-0.2-0.3-0.3c-0.2,0-0.3,0.1-0.4,0.2c-0.6,0.6-1.2,1.6-0.7,2.3c0.4,0.5,1.2,0.5,1.7,0.1
				c0.5-0.4,0.8-1,1-1.6c-1,1-1.5,2.5-1.4,3.9c0,0.3,0.1,0.6,0.3,0.7c0.3,0.2,0.6,0.2,0.9,0.1c2.1-0.3,4-1.6,5.1-3.4
				c-1.9,0.1-3.8,1.2-4.8,2.8c-0.2,0.3-0.4,0.7-0.2,1.1c0.2,0.4,0.8,0.4,1.3,0.3c2.3-0.6,4.1-2.6,4.6-4.9c-2.9,0.8-5.4,3-6.6,5.8
				c-0.1,0.3-0.2,0.8,0,1c0.3,0.2,0.7,0.1,1,0c2.3-1,4.2-2.8,5.4-5c-1.3,0.7-2.4,1.9-2.9,3.4c-0.2,0.5-0.2,1.2,0.2,1.5
				c0.4,0.3,0.9,0,1.3-0.2c1.5-1,2.7-2.4,3.4-4c-0.7,0.1-1.4,0.6-1.6,1.3c1.1-0.7,1.6-2.1,1.3-3.4c-0.6,0.2-0.9,0.8-0.8,1.4
				c0.7-0.5,1.4-1.1,1.3-1.9c-0.1-0.7-0.7-1.1-1.3-1.5c-1.8-1.2-3.6-2.3-5.4-3.5c-0.4-0.2-0.8-0.5-1.2-0.3c-0.3,0.1-0.4,0.4-0.5,0.6
				c-1.4,2.6-2.6,5.3-3.6,8c-0.1,0.4-0.3,0.7-0.2,1.1c0.1,0.4,0.4,0.7,0.8,0.6"/>
			<g>
				<path class="st5" d="M41.2,46.1c1.3,1,2.9,2.3,3.6,3.8c0-0.8,0-1.7,0-2.5C42.5,52,37,53.6,34.3,57.8c1.3-0.2,2.6-0.3,3.9-0.5
					c-1.3-1.2-2.4-2.4-3.3-3.9c-0.7-1.3-2.7-3.3-2.8-4.5c-0.5-4.7,6.8-4.8,9.4-2.9c0.2-1.5,0.4-3,0.6-4.6c-4,0.5-13.9,3.9-11.4,9.7
					c0.5,1.1,1.2,1.7,2.4,1.8c5.3,0.6,4.7-7.5,1.7-9.7c-0.7-0.5-1.8-0.4-2.5,0c-2.2,1.3-3.5,4.6-1.3,6.6c2.4,2.2,5.3,0.2,6.4-2.2
					c1-2.3-2-5.4-3.9-3c-1.8,2.2-3.7,7.3,0.1,8.8c3.3,1.3,7.1-1.9,8.9-4.4c1.5-2-1-3.9-2.8-3.7c-3.1,0.4-10,5.2-5.6,8.5
					c3.9,2.9,8.7-2.7,9.6-6.1c0.5-1.8-1.2-3.7-3.1-3.1c-3.3,1.1-10.5,5.8-8.2,10.2c2.6,5.1,9.3-2.2,10.9-4.7
					c1.3-2.1-1.3-4.8-3.4-3.4c-2.5,1.6-6.3,5.9-3.2,8.8c3.2,3,7.4-2.3,8.7-4.7c1-1.9-0.6-4.3-2.8-3.7c-1.4,0.4-2.4,1.1-3.1,2.5
					c-1.3,2.5,1.8,5,3.9,3c1.6-1.5,2.2-3,2.1-5.2c-0.2-2.3-2.6-3.2-4.3-1.8c-0.9,0.8-1.2,1.3-1.5,2.5c-0.5,2.5,2.2,4,4.2,2.4
					c2.4-1.9,2.6-4.6,0.4-6.7c-1.4-1.4-3.5-2.3-5.2-3.4c-1.2-0.8-2.4-1.6-3.9-1.3c-3,0.6-4.3,5.6-5.3,8.1c-1.1,2.7-2.1,6.1,1.4,7.1
					c3.1,0.9,4.4-3.9,1.3-4.8c-0.2,0-0.3-0.1-0.5-0.1c0.5,0.4,1,0.8,1.5,1.1c-0.1-0.2-0.2-0.3-0.3-0.5c0.1,0.6,0.2,1.3,0.3,1.9
					c0.4-2.5,1.9-6.6,3.7-8.6c-0.6,0.2-1.2,0.5-1.8,0.7c0.9,0,5.3,3.1,5.8,4c-0.1-0.6-0.2-1.3-0.3-1.9c0.1,0.4-0.2,0.7-0.7,0.8
					c1.4,0.8,2.8,1.6,4.2,2.4c0.1-0.1,0.1-0.2,0.2-0.3c-1.4-0.6-2.8-1.2-4.3-1.8c-0.2,0.5-0.4,1.1-0.6,1.6c1.3,1,2.6,2,3.9,3
					c0-0.1,0.1-0.1,0.1-0.2c-0.9-1.2-1.9-2.4-2.8-3.7c-0.4,0.8-1.6,3.1-2.6,3c0.7,0.4,1.4,0.8,2.2,1.2c-0.1-0.2-0.2-0.4-0.4-0.7
					c0.1,0.6,0.2,1.3,0.3,1.9c0.2-1.3,0.8-2,1.9-2.7c-1.1-1.1-2.3-2.3-3.4-3.4c-0.4,0.6-3,4-3.6,3.8c0.6,0.6,1.2,1.2,1.7,1.7
					c0,0,1.8-2,1.6-1.9c0.9-0.9,2-1.5,3.2-1.9c-1-1-2.1-2.1-3.1-3.1c-0.1,0.4-1.6,3.5-2.2,3.1c0.4,0.7,0.8,1.4,1.2,2.2
					c-0.5,0.6-0.1,0.3,1-0.9c0.7-0.4,1.4-0.6,2.1-0.6c-0.9-1.2-1.9-2.4-2.8-3.7c-0.3,0.4-2.2,2.4-3.2,2.1c0.5,0.4,1,0.8,1.5,1.1
					c0.2-0.5,0.4-1.1,0.7-1.6c-1.3-1-2.6-2-3.9-3c0.2,0.2,0.5,0.4,0.7,0.6c0.4,0.5,0.8,1,1.1,1.5c0,0.1,0,0.2-0.1,0.3
					c-0.8,0-1.7,0-2.5,0c0.3,0.1,0.6,0.2,0.8,0.4c0.8,0.6,1.6,1.2,2.4,1.8c-0.3-0.8,3.2-2.4,3.5-2.6c1.4-0.6,2.9-0.8,4.4-1
					c2.4-0.3,2.1-3.5,0.6-4.6c-4.8-3.5-13.1-2.2-16,3.1c-1.4,2.5-1.3,5.5,0.2,7.9c0.9,1.4,2,2.7,3,4.2c1,1.5,2.3,2.8,3.6,4
					c1.2,1.1,3,0.9,3.9-0.5c1.2-1.9,3.7-3,5.4-4.4c1.6-1.4,3.7-3.4,4.8-5.3c2.1-3.6-2.5-6.9-5.1-8.8C41.1,39.8,38.6,44.1,41.2,46.1
					L41.2,46.1z"/>
			</g>
		</g>
	</g>
	<g id="XMLID_109_">
		<path id="XMLID_111_" class="st4" d="M73.4,45.1c-1.9-1.9-4.5-3-7.2-3c-2.7,0-5.3,1.1-7.2,3L45.8,58.2c-4,4-4,10.4,0,14.4
			c1.9,1.9,4.5,3,7.2,3c0,0,0,0,0,0c2.7,0,5.3-1.1,7.2-3l13.1-13.1C77.3,55.5,77.3,49,73.4,45.1z M59,71.4c-1.6,1.6-3.7,2.5-6,2.5
			c0,0,0,0,0,0c-2.3,0-4.4-0.9-6-2.5c-3.3-3.3-3.3-8.7,0-12l6-6l12,12L59,71.4z M66.2,64.2l-12-12l6-6c1.6-1.6,3.7-2.5,6-2.5
			c2.3,0,4.4,0.9,6,2.5c3.3,3.3,3.3,8.7,0,12L66.2,64.2z"/>
		<g id="XMLID_116_">
			<path class="st5" d="M51.2,61.9c-0.6,0.3-1.2,0.6-1.4,1.1c-0.2,0.6,0.2,1.4,0.8,1.2c0.5-0.2,0.6-0.8,0.6-1.3c0-2,0-4.3,1.4-5.7
				c0.5-0.5,1.2-1.2,0.8-1.8C52.1,56,51,57.1,50,58.2c-1.2,1.4-2.5,2.8-3.3,4.5s-1,3.7-0.2,5.4c0.6,1.2,1.8,2.2,3,2.8
				c1.1,0.6,2.2,1.1,3.4,1.1c1.7,0,3.2-0.9,4.7-1.9c-0.7,0.3-1.5,1-1,1.5c0.6-2.1,2.1-3.9,4.1-4.9c-0.6,0.8-1.2,1.7-1.8,2.5
				c1.1-1.7,2.5-3.2,4.2-4.3c-1.7-0.3-2.8-1.9-4-3.2c-1.4-1.5-3-2.8-4.6-4c1.5,2.7,3,5.4,4.5,8.2c-1.5-1.3-2.9-2.6-4.4-3.8
				c-0.4-0.4-1-0.8-1.5-0.6c-0.3,0.1-0.5,0.3-0.7,0.5c-1.1,1.5-0.8,3.8,0.7,4.9c0.2,0.2,0.6,0.3,0.9,0.2c0.3-0.1,0.4-0.3,0.5-0.6
				c0.4-0.8,0.5-1.8,0.4-2.7c0-0.3-0.1-0.6-0.4-0.7c-0.4-0.1-0.7,0.2-0.9,0.5c-1,1.7-0.3,4.2,1.3,5.2c0.4-0.7,0.2-1.6-0.2-2.3
				c-0.6-0.8-1.7-1.2-2.6-0.8s-1.1,1.9-0.3,2.5c0.5-0.6,0.8-1.4,0.6-2.1c-0.2-0.7-1-1.3-1.8-1.1s-1.2,1.2-0.7,1.8
				c0.4-0.6-0.1-1.5-0.7-1.5c-0.7,0-1.2,0.8-0.9,1.4c0.1,0.3,0.4,0.5,0.7,0.7c0.9,0.6,1.8,1,2.8,1.3c1.2,0.4,2.7,0.5,3.3-0.6
				c0.2-0.3,0.2-0.6,0.1-0.9c-0.2-0.3-0.7-0.3-0.8,0c0.5,0.4,1.3,0.4,1.9,0c0.6-0.4,0.9-1.1,0.7-1.7c-0.2,0.2-0.2,0.4-0.2,0.6
				c0.2,0.2,0.6,0.2,0.7,0"/>
			<g>
				<path class="st5" d="M49.9,59.8c-1.7,0.9-3.1,2.5-2.6,4.5c0.5,1.7,2.2,2.8,3.9,2.4c2.3-0.6,2.2-2.9,2.4-4.8
					c0.2-1.8,0.7-2.6,1.6-4c0.5-0.9,0.8-1.5,0.7-2.5c-0.2-1.8-2-3.2-3.8-2.2C47.3,56,41.5,63.1,44.3,69c1.2,2.4,3.7,4.3,6.3,5.1
					c3.1,0.9,5.8-0.2,8.4-1.8c2.7-1.7,0.3-6-2.5-4.3c-1.8,1.1-2.5,2.3-2.2,4.3c0.4,2.7,4.1,2.1,4.8,0c0.6-1.6,1.5-2.6,2.9-3.4
					c-1.1-1.1-2.3-2.3-3.4-3.4c-0.6,0.8-1.2,1.7-1.8,2.5c1.4,0.8,2.9,1.7,4.3,2.5c0.9-1.3,2-2.5,3.3-3.4c1.7-1.3,1.6-3.9-0.6-4.6
					c-1.5-0.5-2.5-2.2-3.6-3.3c-1.2-1.2-2.5-2.3-3.9-3.3c-2.1-1.7-5.4,0.4-3.9,3c1.5,2.7,3,5.4,4.5,8.2c1.3-1,2.6-2,3.9-3
					c-2.8-2.4-8.8-8.8-11.1-2.1c-1.1,3,1.5,9.6,5.6,7.3c3-1.7,3.2-8.8-1.1-8.6c-5.1,0.3-3.8,7.7-1,9.9c1.4,1.1,3.6,0.9,4.2-1.1
					c0.9-3-1.1-6.5-4.6-6.4c-3.2,0.1-5.1,3.8-3.2,6.4c1.2,1.5,3.2,1.7,4.3,0c1.6-2.3,1.1-5.9-1.9-6.8c-3.1-0.9-5.3,2.1-4.5,4.9
					c0.6,2.3,4.3,2.5,4.8,0c0.6-2.8-2-6.1-5-4.1c-3.6,2.4-0.5,5.9,2.2,7.1c2.6,1.2,6.8,1.7,8-1.7c1-2.8-1.8-5.3-4.4-3.7
					c-1.9,1.1-1.4,3.9,0.6,4.6c3.1,1,5.7-0.9,5.8-4.1c0-2.9-4-3.3-4.9-0.7c-0.1,0.2-0.1,0.4-0.2,0.6c-0.3,1,0.2,2.4,1.1,2.8
					c1.2,0.6,2,0.6,3.3,0c2.9-1.4,0.4-5.7-2.5-4.3c-0.1,0.1-0.2,0.1-0.4,0.2c0.8,0,1.7,0,2.5,0C58.1,64.1,58,64,57.9,64
					c0.4,0.9,0.8,1.9,1.1,2.8c0.1-0.2,0.1-0.4,0.2-0.6c-1.6-0.2-3.3-0.4-4.9-0.7c0.2-0.2,0.4-0.5,0.6-0.7c0.2,1.5,0.4,3,0.6,4.6
					c0.1-0.1,0.2-0.1,0.4-0.2c-0.8,0-1.7,0-2.5,0c0.1,0.1,0.3,0.1,0.4,0.2c-0.4-0.5-0.8-1-1.1-1.5c0.9-1.1,0.8-1.7-0.3-1.6
					c-0.9-0.3-1.7-0.7-2.4-1.4c0.2,0.6,0.5,1.2,0.7,1.8c0,0,0,0.1,0,0.1c-0.5,0.4-1,0.8-1.5,1.1c0.2-0.1,0.4-0.1,0.6-0.2
					c-0.6-0.1-1.3-0.2-1.9-0.3c0,0,0,0,0,0c-0.1-0.6-0.2-1.3-0.3-1.9c0,0.2-0.1,0.4-0.1,0.6c1.6,0,3.2,0,4.8,0c0,0,0.1,0,0.1-0.1
					c-0.4,0.5-0.8,1-1.1,1.5c-0.5-0.2-1.1-0.4-1.6-0.6c1.4,0,2.9,0,4.3,0c-0.5,0.4-0.9,0.8-1.4,1.2c1.4-0.4,2.8-0.7,4.2-1.1
					c-0.6-0.2-0.8-0.6-0.8-1.2c0-0.9-0.2-1-0.7-0.3c-0.8-0.2-1.6-0.4-2.4-0.6c-0.3,0-0.5,0.2-0.5,0.5c0.6-0.2,1.2-0.5,1.8-0.7
					c0.4-0.4,0.7-0.8,0.9-1.4c-0.6,0.2-1.2,0.5-1.8,0.7c0.9,0.1,3.4,3,4.1,3.7c2.1,1.8,5.3-0.5,3.9-3c-1.5-2.7-3-5.4-4.5-8.2
					c-1.3,1-2.6,2-3.9,3c3.1,2.5,5.8,6.7,9.7,7.9c-0.2-1.5-0.4-3-0.6-4.6c-2,1.5-3.6,3.2-5.1,5.2c-1.9,2.6,2.5,5.1,4.3,2.5
					c0.6-0.8,1.2-1.7,1.8-2.5c1.5-2.1-1.4-4.6-3.4-3.4c-2.6,1.5-4.2,3.6-5.2,6.4c1.6,0,3.2,0,4.8,0c0-0.2-0.1-0.4-0.1-0.6
					c-0.2,0.8-0.4,1.6-0.6,2.4c0.2-0.2,0.4-0.4,0.6-0.6c-0.8-1.4-1.7-2.9-2.5-4.3c-1.5,0.9-2.7,1.7-4.5,1.3
					c-1.9-0.5-3.3-2.2-3.2-4.1c0.2-2.8,3.7-6.3,6-7.7c-1.3-0.7-2.5-1.4-3.8-2.2c0,0.4-1.6,2.6-1.9,3.3c-0.5,1.6-0.3,3.4-0.5,5
					c0.2-0.6,0.5-1.2,0.7-1.8c-0.2,0.2-0.3,0.4-0.5,0.5c0.8-0.2,1.6-0.4,2.4-0.6c-0.2,0-0.4-0.1-0.5-0.1c0.5,0.4,1,0.8,1.5,1.1
					c0,0.1,0,0.1,0,0.2c-0.2,0.6-0.5,1.2-0.7,1.8c0.3-0.2,0.6-0.5,0.9-0.7C55.2,62.6,52.7,58.2,49.9,59.8L49.9,59.8z"/>
			</g>
		</g>
	</g>
</g>
</svg>
