<?xml version="1.0" encoding="utf-8"?>
<!-- Generator: Adobe Illustrator 20.1.0, SVG Export Plug-In . SVG Version: 6.00 Build 0)  -->
<svg version="1.1" id="Layer_1" xmlns="http://www.w3.org/2000/svg" xmlns:xlink="http://www.w3.org/1999/xlink" x="0px" y="0px"
	 viewBox="0 0 139.9 33.4" style="enable-background:new 0 0 139.9 33.4;" xml:space="preserve">
<style type="text/css">
	.st0{fill-rule:evenodd;clip-rule:evenodd;fill:none;}
	.st1{fill-rule:evenodd;clip-rule:evenodd;fill:#553278;}
	.st2{fill:#CCD2EA;}
	.st3{fill:#FFFFFF;}
</style>
<g>
	<g>
		<g>
			<path class="st0" d="M31.8,21.2C31.8,21.2,31.8,21.2,31.8,21.2L31.8,21.2 M42.9,21.2C42.9,21.2,42.9,21.2,42.9,21.2L42.9,21.2
				 M54.1,21.2C54.1,21.2,54.1,21.2,54.1,21.2L54.1,21.2"/>
			<path class="st1" d="M25.6,23.4v-8.6c0-2.1-0.4-3.7-2.5-3.7c-2.3,0-3.9,1.9-4.4,4.3c-0.2,0.7-0.3,1.5-0.3,2.4v8.2h-4.5V14.8
				c0-2-0.3-3.7-2.5-3.7c-2.3,0-3.8,1.9-4.4,4.3c-0.2,0.7-0.3,1.5-0.3,2.3v8.2H2.2V12c0-0.5-0.3-0.8-0.8-0.8H0V7.3h4.2
				c1.6,0,2.4,0.8,2.4,2.1v0.5c0,0.4,0,0.8,0,0.8h0.1c0.9-1.8,3-3.9,5.9-3.9c2.8,0,4.5,1.3,5.3,3.8h0.1c1-2,3.3-3.8,6.2-3.8
				c3.8,0,6,2.2,6,7.1v7.3c0,0.5,0.3,0.8,0.8,0.8h1.4v3.9H28C26.3,25.9,25.6,25.2,25.6,23.4 M36.7,23.4V12c0-0.5-0.3-0.8-0.8-0.8
				h-1.4V7.3h4.3c1.7,0,2.4,0.8,2.4,2.5v11.4c0,0.5,0.3,0.8,0.8,0.8h1.4v3.9h-4.3C37.4,25.9,36.7,25.2,36.7,23.4z M47.8,23.4V4.7
				c0-0.5-0.3-0.8-0.8-0.8h-1.4V0h4.3c1.7,0,2.4,0.8,2.4,2.5v18.7c0,0.5,0.3,0.8,0.8,0.8h1.4v3.9h-4.3
				C48.5,25.9,47.8,25.2,47.8,23.4z M63.2,6.1v19.8h-2.1c-1.7,0-2.4-0.7-2.4-2.5V4.7c0-0.5-0.3-0.8-0.8-0.8h-1.4V0h4.3
				c1.7,0,2.4,0.8,2.4,2.5V6.1L63.2,6.1z M90.6,0h4v4.3h-4V0z M87.4,33.4c-0.8,0-1.4-0.1-1.4-0.1v-3.9c0,0,0.3,0.1,0.8,0.1
				c1.2,0,3.3-0.3,3.6-2.8h0V7.3h2.1c1.7,0,2.4,0.8,2.4,2.5v16.7C95,32.7,89.9,33.4,87.4,33.4z M109.2,10.8c-2.9,0-5.4,2.4-5.4,5.8
				c0,3.5,2.5,5.8,5.4,5.8c3,0,5.4-2.3,5.4-5.8C114.6,13.2,112.2,10.8,109.2,10.8z M109.2,26.3c-5.6,0-10-4-10-9.7
				c0-5.7,4.4-9.7,10-9.7c5.6,0,10,4,10,9.7C119.2,22.3,114.8,26.3,109.2,26.3z M139.4,11.2c-0.5,0-0.8,0.1-1,0.7l-6.6,16.8
				c-1.3,3.4-3.9,4.8-6.6,4.8c-2.9,0-4.6-1.9-4.6-1.9l1.8-3.3c0,0,1.1,1.3,2.6,1.3c1.3,0,2.4-0.8,3-2.4l0.6-1.4l-6.1-14
				c-0.2-0.5-0.5-0.7-1-0.7H121V7.3h3c1.3,0,1.9,0.5,2.4,1.8l3.6,9.3c0.4,0.9,0.6,2.5,0.6,2.5h0.1c0,0,0.3-1.5,0.6-2.5l3.1-9.3
				c0.4-1.3,1.2-1.8,2.4-1.8h3.1v3.9H139.4z"/>
			<path class="st2" d="M40.9,4.3h-3.9V0h3.9V4.3z M40.9,4.3h-3.9V0h3.9V4.3z M87.7,25.9H66V10h21.7V25.9z"/>
			<path class="st3" d="M82.4,16.9c-0.7,0-1.3,0.6-1.3,1.7c0,1,0.5,1.7,1.3,1.7c0.7,0,1.3-0.5,1.3-1.7
				C83.8,17.8,83.3,16.9,82.4,16.9 M84.5,21.4c-0.5,0-0.7-0.2-0.7-0.6c0-0.1,0-0.2,0-0.2h0c0,0-0.4,0.9-1.7,0.9
				c-1.5,0-2.4-1.2-2.4-2.9c0-1.7,1-2.9,2.4-2.9c1.2,0,1.5,0.7,1.5,0.7h0c0,0,0-0.1,0-0.3v-1c0-0.2-0.1-0.2-0.2-0.2h-0.4v-1.2h1.3
				c0.5,0,0.7,0.2,0.7,0.7V20c0,0.1,0.1,0.2,0.2,0.2h0.4v1.1H84.5z M78.2,21.4c-0.5,0-0.7-0.2-0.7-0.7v-2.5c0-0.7-0.2-1.1-0.8-1.1
				c-0.7,0-1.3,0.5-1.4,1.1c-0.1,0.2-0.1,0.5-0.1,0.7v2.5h-1.3v-4.1c0-0.2-0.1-0.2-0.2-0.2h-0.4v-1.2h1.2c0.5,0,0.7,0.2,0.7,0.6v0.2
				c0,0.1,0,0.2,0,0.2h0c0.2-0.5,0.8-1.1,1.9-1.1c1.2,0,1.9,0.6,1.9,2.1V20c0,0.1,0.1,0.2,0.2,0.2h0.4v1.1H78.2z M71,18.9h-0.2
				c-0.7,0-1.8,0.1-1.8,0.9c0,0.4,0.3,0.7,0.8,0.7c0.7,0,1.2-0.8,1.2-1.4V18.9z M71.8,21.4c-0.5,0-0.7-0.3-0.7-0.6
				c0-0.1,0-0.2,0-0.2h0c0,0-0.4,1-1.6,1c-1,0-1.8-0.6-1.8-1.7c0-1.7,2.3-1.9,3.2-1.9H71v0c0-0.8-0.3-1.1-1-1.1
				c-0.2,0-0.7,0.1-0.7,0.4v0.3H68v-0.6c0-1,1.4-1.1,2-1.1c1.8,0,2.3,1,2.3,2.2v2c0,0.1,0.1,0.2,0.2,0.2H73v1.1H71.8z"/>
		</g>
	</g>
</g>
</svg>
