<?xml version="1.0" encoding="utf-8"?>
<!-- Generator: Adobe Illustrator 20.1.0, SVG Export Plug-In . SVG Version: 6.00 Build 0)  -->
<svg version="1.1" id="Layer_1" xmlns="http://www.w3.org/2000/svg" xmlns:xlink="http://www.w3.org/1999/xlink" x="0px" y="0px"
	 viewBox="0 0 101 104" style="enable-background:new 0 0 101 104;" xml:space="preserve">
<style type="text/css">
	.st0{display:none;fill:#FFFFFF;}
	.st1{fill:#FFFFFF;}
	.st2{display:none;fill:none;}
	.st3{fill:#010202;}
	.st4{fill:#7C1715;}
</style>
<g id="XMLID_30_">
	<path id="XMLID_102_" class="st0" d="M27.6,74.1c0,1,0.8,1.8,1.8,1.8h24.9V61.1L35.4,42.2h-7.8V74.1z"/>
	<path id="XMLID_101_" class="st0" d="M28.4,40.3h5.1l-2.9-2.9C29.7,38.5,28.9,39.5,28.4,40.3z"/>
	<path id="XMLID_100_" class="st0" d="M50.9,95.8c10.6,0,20.3-3.9,27.8-10.2l-8-8c-0.4,0.2-0.9,0.3-1.3,0.3H29.4
		c-2,0-3.7-1.7-3.7-3.7V41.7c0-1,1.8-3.5,3.6-5.7L18.1,24.9C11.7,32.4,7.9,42.2,7.9,52.8C7.9,76.5,27.2,95.8,50.9,95.8z"/>
	<polygon id="XMLID_99_" class="st0" points="54.2,42.2 38.1,42.2 54.2,58.4 	"/>
	<path id="XMLID_98_" class="st0" d="M71.2,74.1v-32H56.2v18.1l14.8,14.8C71.1,74.8,71.2,74.5,71.2,74.1z"/>
	<path id="XMLID_97_" class="st0" d="M54.2,40.2h0.4l5.8-10.4H37.7c-0.9,0.4-3.5,3.2-5.9,6.1l4.4,4.4L54.2,40.2L54.2,40.2L54.2,40.2
		z"/>
	<rect id="XMLID_96_" x="38.6" y="24" class="st0" width="22.5" height="4"/>
	<path id="XMLID_95_" class="st0" d="M30.8,34.1c3.3-3.9,5-5.3,5.9-5.9v-6.2H63v6.4c0.9,0.7,2.5,2.2,5.3,5.7
		c1.8,2.3,4.8,6.3,4.8,7.6v32.4c0,0.9-0.3,1.7-0.8,2.3l7.9,7.9C88.7,76.5,94,65.2,94,52.8C94,29,74.7,9.7,50.9,9.7
		c-12.5,0-23.7,5.3-31.6,13.8l11.1,11.1C30.6,34.4,30.7,34.3,30.8,34.1z"/>
	<polygon id="XMLID_94_" class="st0" points="56.2,63 56.2,75.9 69.1,75.9 	"/>
	<path id="XMLID_93_" class="st0" d="M70.4,40.2c-1.8-2.8-6.2-8.2-8.1-9.9l-5.5,9.9H70.4z"/>
	<path id="XMLID_31_" class="st1" d="M16.7,23.6C10,31.4,5.9,41.6,5.9,52.8c0,24.8,20.2,45,45,45s45-20.2,45-45s-20.2-45-45-45
		c-13,0-24.7,5.5-32.9,14.4 M50.9,9.7C74.7,9.7,94,29,94,52.8c0,12.5-5.3,23.7-13.8,31.6l-7.9-7.9c0.5-0.6,0.8-1.4,0.8-2.3V41.7
		c0-1.3-3-5.3-4.8-7.6c-2.8-3.5-4.4-5-5.3-5.7v-6.4H36.7v6.2c-0.9,0.5-2.6,2-5.9,5.9c-0.1,0.1-0.3,0.3-0.4,0.5L19.4,23.5
		C27.2,15,38.5,9.7,50.9,9.7z M35.4,42.2l18.9,18.9v14.8H29.4c-1,0-1.8-0.8-1.8-1.8V42.2H35.4z M28.4,40.3c0.5-0.8,1.3-1.8,2.2-2.9
		l2.9,2.9H28.4z M38.1,42.2h16.1v16.1L38.1,42.2z M36.2,40.3l-4.4-4.4c2.4-2.9,5.1-5.7,5.9-6.1h22.7l-5.8,10.4h-0.4v0.1L36.2,40.3
		L36.2,40.3z M61.1,27.9H38.6v-4h22.5V27.9z M62.3,30.3c1.9,1.7,6.3,7.1,8.1,9.9H56.8L62.3,30.3z M56.2,63l12.9,12.9H56.2V63z
		 M56.2,60.3V42.2h15.1v32c0,0.3-0.1,0.7-0.3,0.9L56.2,60.3z M18.1,24.9l11.1,11.1c-1.7,2.2-3.6,4.7-3.6,5.7v32.4
		c0,2,1.7,3.7,3.7,3.7h40.1c0.5,0,0.9-0.1,1.3-0.3l8,8C71.3,92,61.5,95.8,50.9,95.8c-23.8,0-43.1-19.3-43.1-43.1
		C7.9,42.2,11.7,32.4,18.1,24.9z"/>
</g>
<g id="XMLID_1_">
	<path id="XMLID_23_" class="st2" d="M148.1,74.1c0,1,0.8,1.8,1.8,1.8h24.9V61.1L156,42.2h-7.8V74.1z"/>
	<path id="XMLID_22_" class="st2" d="M149,40.3h5.1l-2.9-2.9C150.3,38.5,149.5,39.5,149,40.3z"/>
	<path id="XMLID_21_" class="st2" d="M171.5,95.8c10.6,0,20.3-3.9,27.8-10.2l-8-8c-0.4,0.2-0.9,0.3-1.3,0.3h-40.1
		c-2,0-3.7-1.7-3.7-3.7V41.7c0-1,1.8-3.5,3.6-5.7l-11.1-11.1c-6.4,7.5-10.2,17.2-10.2,27.8C128.4,76.5,147.7,95.8,171.5,95.8z"/>
	<polygon id="XMLID_20_" class="st2" points="174.8,42.2 158.7,42.2 174.8,58.4 	"/>
	<path id="XMLID_19_" class="st2" d="M191.8,74.1v-32h-15.1v18.1l14.8,14.8C191.7,74.8,191.8,74.5,191.8,74.1z"/>
	<path id="XMLID_18_" class="st2" d="M174.8,40.2h0.4l5.8-10.4h-22.7c-0.9,0.4-3.5,3.2-5.9,6.1l4.4,4.4L174.8,40.2L174.8,40.2
		L174.8,40.2z"/>
	<rect id="XMLID_17_" x="159.2" y="24" class="st2" width="22.5" height="4"/>
	<path id="XMLID_16_" class="st2" d="M151.4,34.1c3.3-3.9,5-5.3,5.9-5.9v-6.2h26.3v6.4c0.9,0.7,2.5,2.2,5.3,5.7
		c1.8,2.3,4.8,6.3,4.8,7.6v32.4c0,0.9-0.3,1.7-0.8,2.3l7.9,7.9c8.5-7.9,13.8-19.1,13.8-31.6c0-23.8-19.3-43.1-43.1-43.1
		c-12.5,0-23.7,5.3-31.6,13.8L151,34.6C151.1,34.4,151.3,34.3,151.4,34.1z"/>
	<polygon id="XMLID_15_" class="st2" points="176.7,63 176.7,75.9 189.7,75.9 	"/>
	<path id="XMLID_14_" class="st2" d="M191,40.2c-1.8-2.8-6.2-8.2-8.1-9.9l-5.5,9.9H191z"/>
	<path id="XMLID_2_" class="st3" d="M137.3,23.6c-6.7,7.9-10.8,18.1-10.8,29.2c0,24.8,20.2,45,45,45s45-20.2,45-45s-20.2-45-45-45
		c-13,0-24.7,5.5-32.9,14.4 M171.5,9.7c23.8,0,43.1,19.3,43.1,43.1c0,12.5-5.3,23.7-13.8,31.6l-7.9-7.9c0.5-0.6,0.8-1.4,0.8-2.3
		V41.7c0-1.3-3-5.3-4.8-7.6c-2.8-3.5-4.4-5-5.3-5.7v-6.4h-26.3v6.2c-0.9,0.5-2.6,2-5.9,5.9c-0.1,0.1-0.3,0.3-0.4,0.5l-11.1-11.1
		C147.8,15,159,9.7,171.5,9.7z M156,42.2l18.9,18.9v14.8h-24.9c-1,0-1.8-0.8-1.8-1.8V42.2H156z M149,40.3c0.5-0.8,1.3-1.8,2.2-2.9
		l2.9,2.9H149z M158.7,42.2h16.1v16.1L158.7,42.2z M156.7,40.3l-4.4-4.4c2.4-2.9,5.1-5.7,5.9-6.1H181l-5.8,10.4h-0.4v0.1L156.7,40.3
		L156.7,40.3z M181.6,27.9h-22.5v-4h22.5V27.9z M182.9,30.3c1.9,1.7,6.3,7.1,8.1,9.9h-13.6L182.9,30.3z M176.7,63l12.9,12.9h-12.9
		V63z M176.7,60.3V42.2h15.1v32c0,0.3-0.1,0.7-0.3,0.9L176.7,60.3z M138.6,24.9l11.1,11.1c-1.7,2.2-3.6,4.7-3.6,5.7v32.4
		c0,2,1.7,3.7,3.7,3.7H190c0.5,0,0.9-0.1,1.3-0.3l8,8c-7.5,6.4-17.2,10.2-27.8,10.2c-23.8,0-43.1-19.3-43.1-43.1
		C128.4,42.2,132.3,32.4,138.6,24.9z"/>
</g>
<rect x="121" class="st4" width="101" height="104"/>
</svg>
